<svg xmlns="http://www.w3.org/2000/svg" viewBox="-515.748 32.328 133.886 62.668"><defs><style>.a{fill:#fff;fill-rule:evenodd;}</style></defs><path class="a" d="M78.438,188.107c.121.03.231.054.329.068a2.673,2.673,0,0,1,.307.068,8.658,8.658,0,0,1,1.477.407,4.884,4.884,0,0,1,1.306.725,3.563,3.563,0,0,1,.931,1.086,3.028,3.028,0,0,1,.353,1.5,3.229,3.229,0,0,1-.431,1.72,3.638,3.638,0,0,1-1.1,1.143,4.651,4.651,0,0,1-1.465.635,6.415,6.415,0,0,1-1.5.192,5.7,5.7,0,0,1-2.283-.5,5.4,5.4,0,0,1-2.1-1.743l1.7-1.766a3.429,3.429,0,0,0,1.261.939,4.375,4.375,0,0,0,1.465.352,2.107,2.107,0,0,0,.477-.057,1.333,1.333,0,0,0,.456-.192,1.208,1.208,0,0,0,.33-.316.708.708,0,0,0,.124-.407.823.823,0,0,0-.147-.513.964.964,0,0,0-.376-.293,2.353,2.353,0,0,0-.477-.158c-.166-.038-.326-.072-.477-.1a7.385,7.385,0,0,1-1.4-.419,4.693,4.693,0,0,1-1.239-.736,3.615,3.615,0,0,1-.885-1.087,3.055,3.055,0,0,1-.342-1.471,3.267,3.267,0,0,1,.363-1.563,3.43,3.43,0,0,1,.969-1.132,4.4,4.4,0,0,1,1.386-.689,5.455,5.455,0,0,1,1.6-.239,5.316,5.316,0,0,1,1.874.373,5.776,5.776,0,0,1,2.011,1.416l-1.658,1.675a3.68,3.68,0,0,0-1.193-.611,4.066,4.066,0,0,0-1.056-.158,1.965,1.965,0,0,0-.443.057,1.377,1.377,0,0,0-.443.193,1.322,1.322,0,0,0-.342.328.789.789,0,0,0-.136.465.665.665,0,0,0,.238.509,1.416,1.416,0,0,0,.534.305m18.208,1.517a6.393,6.393,0,0,1-.456,2.445,5.543,5.543,0,0,1-1.272,1.9,5.966,5.966,0,0,1-1.931,1.244,6.614,6.614,0,0,1-4.817,0,5.971,5.971,0,0,1-1.931-1.244,5.669,5.669,0,0,1-1.283-1.9,6.249,6.249,0,0,1-.466-2.445,6.394,6.394,0,0,1,.466-2.48,5.63,5.63,0,0,1,1.283-1.913A5.835,5.835,0,0,1,88.172,184a6.79,6.79,0,0,1,4.817,0,5.829,5.829,0,0,1,1.931,1.234,5.507,5.507,0,0,1,1.272,1.913,6.542,6.542,0,0,1,.456,2.48m-9.11,0a3.166,3.166,0,0,0,1.011,2.4,3.025,3.025,0,0,0,.976.612,2.962,2.962,0,0,0,1.056.2,3.026,3.026,0,0,0,1.082-.2,2.9,2.9,0,0,0,.965-.612,3.042,3.042,0,0,0,.693-1.007,3.479,3.479,0,0,0,.261-1.392,3.7,3.7,0,0,0-.261-1.449,2.786,2.786,0,0,0-.693-1,2.945,2.945,0,0,0-.965-.578,3.181,3.181,0,0,0-1.082-.193,3.114,3.114,0,0,0-1.056.193,2.872,2.872,0,0,0-.976.6,3.217,3.217,0,0,0-.727,1.007,3.26,3.26,0,0,0-.285,1.415m16.654-7.741a2.38,2.38,0,0,0-1.511.285,1.069,1.069,0,0,0-.513.917v.792h2.022v2.491h-2.022v8.989H99.033v-8.991H97.874v-2.491h1.159v-.794a3.426,3.426,0,0,1,.386-1.856,3.215,3.215,0,0,1,1.17-1.212,4.34,4.34,0,0,1,1.669-.565,6.657,6.657,0,0,1,1.931.034v2.4Zm7.292,13.472a6.279,6.279,0,0,1-1.909.022,4.387,4.387,0,0,1-1.658-.577,3.161,3.161,0,0,1-1.147-1.212,3.656,3.656,0,0,1-.375-1.924v-5.3h-1.273v-2.489h1.273v-4.37h3.02v4.37h2.068v2.491h-2.068v5.23a1.032,1.032,0,0,0,.533.905,2.36,2.36,0,0,0,1.534.228v2.627Zm13.117-5.729.409,3.6h.159l.431-3.668,1.227-5.751H130.1l-2.952,11.548h-4.112l-1.341-5.526-.409-3.373h-.114l-.408,3.373-1.363,5.526h-4.113l-2.862-11.548h3.2l1.227,5.751.431,3.668h.159l.409-3.6,1.613-5.751h3.5Zm14.182,5.729-.408-1.019a3.084,3.084,0,0,1-1.318.973,4.1,4.1,0,0,1-1.454.3,5.592,5.592,0,0,1-2-.329,4.424,4.424,0,0,1-1.454-.872,3.562,3.562,0,0,1-.886-1.233,3.622,3.622,0,0,1-.3-1.437,3.28,3.28,0,0,1,.7-2.151,4.53,4.53,0,0,1,1.769-1.318,6.525,6.525,0,0,1,2.328-.5,7.034,7.034,0,0,1,2.4.317,1.975,1.975,0,0,0-.194-.916,1.692,1.692,0,0,0-.522-.612,2.138,2.138,0,0,0-.741-.342,3.472,3.472,0,0,0-.841-.1,5.2,5.2,0,0,0-1.624.25,8.574,8.574,0,0,0-1.465.634l-1.045-1.9a6.947,6.947,0,0,1,2.147-1.189,7.2,7.2,0,0,1,2.283-.373,5.977,5.977,0,0,1,1.9.305,4.836,4.836,0,0,1,1.636.917,4.365,4.365,0,0,1,1.135,1.538,5.241,5.241,0,0,1,.42,2.173v6.883h-2.476Zm-2.612-2.288a2.626,2.626,0,0,0,1.079-.248,4.143,4.143,0,0,0,.939-.567V190.44a4.349,4.349,0,0,0-1.3-.339,4.945,4.945,0,0,0-1.419.022,2.654,2.654,0,0,0-1.136.452,1.171,1.171,0,0,0-.489.952,1.286,1.286,0,0,0,.579,1.065,2.749,2.749,0,0,0,1.738.475m10.361-9.305.25,1.2a3.351,3.351,0,0,1,1.181-.962,3.611,3.611,0,0,1,1.409-.362,3.743,3.743,0,0,1,1.431.214,3.886,3.886,0,0,1,1.272.747l-1.317,2.332a3.09,3.09,0,0,0-1.192-.475,2.615,2.615,0,0,0-1.192.044,1.937,1.937,0,0,0-.921.577,1.62,1.62,0,0,0-.375,1.121v7.155H144V183.762Zm16.263,9.668a6.545,6.545,0,0,1-2.181,1.652,6.36,6.36,0,0,1-4.986-.023,5.518,5.518,0,0,1-1.84-1.37,5.674,5.674,0,0,1-1.1-1.925,6.767,6.767,0,0,1-.363-2.184,6.494,6.494,0,0,1,.375-2.174,5.659,5.659,0,0,1,5.487-3.782,6.067,6.067,0,0,1,2.306.431,5.267,5.267,0,0,1,1.805,1.2,5.516,5.516,0,0,1,1.17,1.823,6.014,6.014,0,0,1,.42,2.253q0,.272-.023.68a6.142,6.142,0,0,1-.114.859h-8.314a2.355,2.355,0,0,0,.84,1.359,3.157,3.157,0,0,0,1.454.634,4.054,4.054,0,0,0,1.715-.1,3.83,3.83,0,0,0,1.6-.871Zm-1.954-4.937a2.655,2.655,0,0,0-.352-1.007,2.362,2.362,0,0,0-1.409-1.065,3.259,3.259,0,0,0-.875-.124,3.464,3.464,0,0,0-.912.124,2.684,2.684,0,0,0-.84.4,2.472,2.472,0,0,0-1.022,1.675h5.407ZM89.818,174.964h8.215V156.589c.293-3.719,2.235-7.622,6.984-7.622,5.184,0,7.025,4.654,7.025,8.639v17.358h8.216V157.606A18.18,18.18,0,0,0,116.4,146a14.46,14.46,0,0,0-11.386-5.224,15.057,15.057,0,0,0-6.984,1.656V133H89.818v41.966Zm42.513-33.047h-8.216v33.044h8.217V141.917Zm21.256,0-4.533,8.09-4.6-8.09h-9.444l9.35,16.459-9.294,16.587h9.411l4.62-8.246,4.684,8.246h9.442l-9.437-16.611L163,141.921h-9.411Zm-82.211-.157a15.937,15.937,0,0,0-13.54,7.507l-6.2,13.383-.332.73c-1.553,2.648-3.488,4.819-6.57,4.819a6.857,6.857,0,1,1,0-13.713c2.388,0,4.9,1.806,7.028,3.939l4.433-9.5a10.761,10.761,0,0,0-2.792-4.193c-5.5-5.261-14.033-5.226-19.273-2.523l3.122,6.007a11.145,11.145,0,0,1,10.114.363,15.4,15.4,0,0,0-11.034,1.353A12.856,12.856,0,0,0,30,161.343a14.715,14.715,0,0,0,14.74,14.69,14.3,14.3,0,0,0,12.569-7.288l6.036-12.784c1.4-3.606,4.387-6.367,8.033-6.367a8.056,8.056,0,1,1,0,16.113c-5.106,0-7.227-3.1-8.415-5.01l-1.534,3.312-1.677,3.621-.021,16.915H67.59V173.085a15.9,15.9,0,1,0,3.786-31.324" transform="translate(-545.74 -100.672)"/></svg>